<?xml version="1.0" standalone="no"?>
<!DOCTYPE svg PUBLIC "-//W3C//DTD SVG 20010904//EN"
 "http://www.w3.org/TR/2001/REC-SVG-20010904/DTD/svg10.dtd">
<svg version="1.0" xmlns="http://www.w3.org/2000/svg"
 width="700.000000pt" height="700.000000pt" viewBox="0 0 700.000000 700.000000"
 preserveAspectRatio="xMidYMid meet">
<metadata>
Created by potrace 1.14, written by Peter Selinger 2001-2017
</metadata>
<g transform="translate(0.000000,700.000000) scale(0.100000,-0.100000)"
fill="#000000" stroke="none">
<path d="M0 3500 l0 -3500 3500 0 3500 0 0 3500 0 3500 -3500 0 -3500 0 0
-3500z m2258 2080 c34 -15 47 -29 63 -65 20 -45 20 -67 22 -1633 2 -1701 3
-1670 -49 -1880 -79 -319 -239 -507 -494 -579 -56 -16 -105 -18 -367 -18 -289
0 -303 1 -330 21 -15 11 -37 38 -48 60 -18 36 -20 59 -20 284 0 230 1 248 22
292 11 25 32 52 45 59 15 9 84 16 200 20 207 7 228 15 268 94 l25 50 5 1600
c5 1461 6 1603 21 1630 22 39 50 64 85 75 16 4 137 9 269 9 217 1 244 -1 283
-19z m1969 -8 c56 -40 65 -94 61 -359 -3 -204 -5 -232 -23 -267 -11 -22 -33
-49 -48 -60 -27 -20 -44 -21 -415 -26 -213 -3 -395 -9 -404 -14 -35 -16 -39
-70 -36 -448 2 -284 6 -370 16 -380 10 -10 76 -14 257 -18 348 -7 330 13 330
-370 0 -289 -2 -303 -58 -344 -26 -20 -45 -21 -269 -26 -237 -5 -240 -5 -259
-29 -18 -22 -19 -46 -19 -518 0 -524 1 -537 47 -559 10 -5 196 -11 413 -14
434 -6 434 -6 479 -69 35 -48 43 -117 39 -328 -3 -189 -4 -201 -28 -248 -19
-36 -37 -55 -70 -72 l-44 -23 -732 2 c-727 3 -733 3 -761 24 -15 12 -37 36
-48 55 -20 34 -20 54 -23 1989 -2 2139 -5 2025 55 2082 15 14 42 30 58 36 20
7 261 10 740 9 l710 -2 32 -23z m1820 2 c15 -11 37 -38 48 -60 18 -36 20 -59
20 -289 0 -212 -3 -256 -17 -287 -33 -73 -31 -72 -418 -78 -376 -5 -386 -7
-424 -65 -29 -44 -54 -164 -67 -326 -17 -208 -18 -1665 -1 -1898 20 -266 50
-373 115 -408 28 -16 71 -19 367 -23 372 -6 382 -7 417 -73 16 -28 18 -62 18
-292 0 -237 -2 -263 -19 -299 -14 -28 -32 -44 -63 -58 -41 -18 -67 -19 -541
-16 -432 4 -505 6 -555 21 -104 30 -169 68 -232 132 -161 163 -235 465 -265
1090 -13 270 -13 1559 0 1820 40 795 179 1072 565 1128 17 2 254 4 527 3 485
-1 497 -1 525 -22z"/>
</g>
</svg>
