<?xml version="1.0" encoding="utf-8"?>
<!-- Generator: Adobe Illustrator 27.4.0, SVG Export Plug-In . SVG Version: 6.00 Build 0)  -->
<svg version="1.1" id="Layer_1" xmlns="http://www.w3.org/2000/svg" xmlns:xlink="http://www.w3.org/1999/xlink" x="0px" y="0px"
	 viewBox="0 0 256 256" style="enable-background:new 0 0 256 256;" xml:space="preserve">
<style type="text/css">
	.st0{fill:#FFFFFF;}
</style>
<path class="st0" d="M127.5,32.2c-24.2,0.1-48.2,3.2-60.6,8.9c0,0-26.9,12.2-26.9,53.9c0,49.6,0,111.8,44.5,123.9
	c17.1,4.6,31.7,5.6,43.5,4.9c21.4-1.2,32-7.8,32-7.8l-0.7-15.8c0,0-13.9,4.9-31,4.3c-17-0.6-34.9-1.9-37.7-23.1c-0.3-2-0.4-4-0.4-6
	c36.1,9,66.8,3.9,75.3,2.9c23.6-2.9,44.2-17.7,46.8-31.2C216.3,125.8,216,95,216,95c0-41.6-26.8-53.9-26.8-53.9
	C176,35,151.7,32.2,127.5,32.2z M101.6,64c8.3,0.2,16.5,3.9,21.5,11.8L128,84l4.9-8.3C143,60,165.7,61,176.5,73.2
	c10,11.6,7.7,19.1,7.7,70.8v0h-19.6V99c0-21.1-26.9-21.9-26.9,2.9V128h-19.5v-26.1c0-24.8-26.9-24-26.9-2.9v45H71.8
	c0-51.8-2.2-59.3,7.7-70.8C85,67.1,93.4,63.8,101.6,64z"/>
</svg>
